<?xml version="1.0" encoding="UTF-8" standalone="no"?>
<!DOCTYPE svg PUBLIC "-//W3C//DTD SVG 1.1//EN"
 "http://www.w3.org/Graphics/SVG/1.1/DTD/svg11.dtd">
<!-- Generated by graphviz version 2.46.0 (20210118.1747)
 -->
<!-- Pages: 1 -->
<svg width="553pt" height="1022pt"
 viewBox="0.00 0.00 553.00 1022.00" xmlns="http://www.w3.org/2000/svg" xmlns:xlink="http://www.w3.org/1999/xlink">
<g id="graph0" class="graph" transform="scale(1 1) rotate(0) translate(4 1018)">
<polygon fill="white" stroke="transparent" points="-4,4 -4,-1018 549,-1018 549,4 -4,4"/>
<!-- a80786c402e04869b5f671715b716ac1 -->
<g id="node1" class="node">
<title>a80786c402e04869b5f671715b716ac1</title>
<ellipse fill="grey" stroke="black" cx="263" cy="-18" rx="36.5" ry="18"/>
<text text-anchor="middle" x="263" y="-14.3" font-family="Times New Roman,serif" font-size="14.00">a80786</text>
</g>
<!-- 4397ff7c7a1449c29a61c0ce59f23824 -->
<g id="node2" class="node">
<title>4397ff7c7a1449c29a61c0ce59f23824</title>
<polygon fill="grey" stroke="black" points="290,-123 236,-123 236,-87 290,-87 290,-123"/>
<text text-anchor="middle" x="263" y="-101.3" font-family="Times New Roman,serif" font-size="14.00">4397ff</text>
</g>
<!-- 4397ff7c7a1449c29a61c0ce59f23824&#45;&gt;a80786c402e04869b5f671715b716ac1 -->
<g id="edge1" class="edge">
<title>4397ff7c7a1449c29a61c0ce59f23824&#45;&gt;a80786c402e04869b5f671715b716ac1</title>
<path fill="none" stroke="black" d="M263,-86.8C263,-75.16 263,-59.55 263,-46.24"/>
<polygon fill="black" stroke="black" points="266.5,-46.17 263,-36.17 259.5,-46.18 266.5,-46.17"/>
<text text-anchor="middle" x="284.5" y="-57.8" font-family="Times New Roman,serif" font-size="14.00">cleaned</text>
</g>
<!-- 0b8e06c2a8ce46aaa32db5b1cba50c56 -->
<g id="node3" class="node">
<title>0b8e06c2a8ce46aaa32db5b1cba50c56</title>
<polygon fill="grey" stroke="black" points="351.5,-264 294.5,-264 294.5,-228 351.5,-228 351.5,-264"/>
<text text-anchor="middle" x="323" y="-242.3" font-family="Times New Roman,serif" font-size="14.00">0b8e06</text>
</g>
<!-- 0b8e06c2a8ce46aaa32db5b1cba50c56&#45;&gt;4397ff7c7a1449c29a61c0ce59f23824 -->
<g id="edge2" class="edge">
<title>0b8e06c2a8ce46aaa32db5b1cba50c56&#45;&gt;4397ff7c7a1449c29a61c0ce59f23824</title>
<path fill="none" stroke="black" d="M316.95,-227.8C309.45,-206.95 295.95,-170.9 282,-141 280.67,-138.15 279.21,-135.2 277.71,-132.29"/>
<polygon fill="black" stroke="black" points="280.68,-130.42 272.9,-123.23 274.5,-133.7 280.68,-130.42"/>
<text text-anchor="middle" x="332" y="-188.3" font-family="Times New Roman,serif" font-size="14.00">append</text>
</g>
<!-- 04825c2074de4da7ae8e593850cdce8c -->
<g id="node4" class="node">
<title>04825c2074de4da7ae8e593850cdce8c</title>
<polygon fill="none" stroke="black" points="232.5,-210 175.5,-210 175.5,-174 232.5,-174 232.5,-210"/>
<text text-anchor="middle" x="204" y="-188.3" font-family="Times New Roman,serif" font-size="14.00">04825c</text>
</g>
<!-- 04825c2074de4da7ae8e593850cdce8c&#45;&gt;4397ff7c7a1449c29a61c0ce59f23824 -->
<g id="edge3" class="edge">
<title>04825c2074de4da7ae8e593850cdce8c&#45;&gt;4397ff7c7a1449c29a61c0ce59f23824</title>
<path fill="none" stroke="black" d="M215.94,-173.8C224.34,-161.7 235.72,-145.3 245.18,-131.67"/>
<polygon fill="black" stroke="black" points="248.25,-133.39 251.08,-123.18 242.5,-129.39 248.25,-133.39"/>
<text text-anchor="middle" x="259" y="-144.8" font-family="Times New Roman,serif" font-size="14.00">append</text>
</g>
<!-- 74cbec552840433ba699e774f08566eb -->
<g id="node5" class="node">
<title>74cbec552840433ba699e774f08566eb</title>
<polygon fill="grey" stroke="black" points="351.5,-405 294.5,-405 294.5,-369 351.5,-369 351.5,-405"/>
<text text-anchor="middle" x="323" y="-383.3" font-family="Times New Roman,serif" font-size="14.00">74cbec</text>
</g>
<!-- 74cbec552840433ba699e774f08566eb&#45;&gt;0b8e06c2a8ce46aaa32db5b1cba50c56 -->
<g id="edge4" class="edge">
<title>74cbec552840433ba699e774f08566eb&#45;&gt;0b8e06c2a8ce46aaa32db5b1cba50c56</title>
<path fill="none" stroke="black" d="M323,-368.96C323,-345.4 323,-302.64 323,-274.53"/>
<polygon fill="black" stroke="black" points="326.5,-274.18 323,-264.18 319.5,-274.18 326.5,-274.18"/>
<text text-anchor="middle" x="346" y="-339.8" font-family="Times New Roman,serif" font-size="14.00">dropout</text>
</g>
<!-- 8c4afe2c085943acb9593e64c48673ac -->
<g id="node6" class="node">
<title>8c4afe2c085943acb9593e64c48673ac</title>
<polygon fill="none" stroke="black" points="307,-492 253,-492 253,-456 307,-456 307,-492"/>
<text text-anchor="middle" x="280" y="-470.3" font-family="Times New Roman,serif" font-size="14.00">8c4afe</text>
</g>
<!-- 8c4afe2c085943acb9593e64c48673ac&#45;&gt;74cbec552840433ba699e774f08566eb -->
<g id="edge5" class="edge">
<title>8c4afe2c085943acb9593e64c48673ac&#45;&gt;74cbec552840433ba699e774f08566eb</title>
<path fill="none" stroke="black" d="M278.76,-455.96C278.72,-445.88 279.93,-433.15 285,-423 286.89,-419.21 289.38,-415.62 292.18,-412.3"/>
<polygon fill="black" stroke="black" points="294.75,-414.68 299.15,-405.04 289.7,-409.83 294.75,-414.68"/>
<text text-anchor="middle" x="306" y="-426.8" font-family="Times New Roman,serif" font-size="14.00">append</text>
</g>
<!-- 407df5f1ca244f148c78431236fdbb47 -->
<g id="node7" class="node">
<title>407df5f1ca244f148c78431236fdbb47</title>
<polygon fill="grey" stroke="black" points="490,-492 434,-492 434,-456 490,-456 490,-492"/>
<text text-anchor="middle" x="462" y="-470.3" font-family="Times New Roman,serif" font-size="14.00">407df5</text>
</g>
<!-- 407df5f1ca244f148c78431236fdbb47&#45;&gt;74cbec552840433ba699e774f08566eb -->
<g id="edge6" class="edge">
<title>407df5f1ca244f148c78431236fdbb47&#45;&gt;74cbec552840433ba699e774f08566eb</title>
<path fill="none" stroke="black" d="M444.47,-455.77C433.25,-445.38 418.04,-432.38 403,-423 390.06,-414.93 374.94,-407.8 361.35,-402.11"/>
<polygon fill="black" stroke="black" points="362.36,-398.74 351.78,-398.24 359.74,-405.23 362.36,-398.74"/>
<text text-anchor="middle" x="445" y="-426.8" font-family="Times New Roman,serif" font-size="14.00">append</text>
</g>
<!-- 1aad0127df534f92afce642d6ae9a185 -->
<g id="node8" class="node">
<title>1aad0127df534f92afce642d6ae9a185</title>
<polygon fill="none" stroke="black" points="270,-579 214,-579 214,-543 270,-543 270,-579"/>
<text text-anchor="middle" x="242" y="-557.3" font-family="Times New Roman,serif" font-size="14.00">1aad01</text>
</g>
<!-- 1aad0127df534f92afce642d6ae9a185&#45;&gt;8c4afe2c085943acb9593e64c48673ac -->
<g id="edge7" class="edge">
<title>1aad0127df534f92afce642d6ae9a185&#45;&gt;8c4afe2c085943acb9593e64c48673ac</title>
<path fill="none" stroke="black" d="M249.86,-542.93C252.47,-537.24 255.38,-530.85 258,-525 261.44,-517.33 265.13,-508.99 268.49,-501.35"/>
<polygon fill="black" stroke="black" points="271.71,-502.71 272.53,-492.15 265.3,-499.9 271.71,-502.71"/>
<text text-anchor="middle" x="285" y="-513.8" font-family="Times New Roman,serif" font-size="14.00">replace</text>
</g>
<!-- ddb1c802549c4ff9b033cab853a2b2a2 -->
<g id="node9" class="node">
<title>ddb1c802549c4ff9b033cab853a2b2a2</title>
<polygon fill="none" stroke="black" points="234.5,-492 175.5,-492 175.5,-456 234.5,-456 234.5,-492"/>
<text text-anchor="middle" x="205" y="-470.3" font-family="Times New Roman,serif" font-size="14.00">ddb1c8</text>
</g>
<!-- 1aad0127df534f92afce642d6ae9a185&#45;&gt;ddb1c802549c4ff9b033cab853a2b2a2 -->
<g id="edge8" class="edge">
<title>1aad0127df534f92afce642d6ae9a185&#45;&gt;ddb1c802549c4ff9b033cab853a2b2a2</title>
<path fill="none" stroke="black" d="M219.03,-542.93C213.8,-537.79 208.92,-531.72 206,-525 202.99,-518.07 201.91,-510.08 201.8,-502.54"/>
<polygon fill="black" stroke="black" points="205.3,-502.47 202.18,-492.35 198.31,-502.21 205.3,-502.47"/>
<text text-anchor="middle" x="232" y="-513.8" font-family="Times New Roman,serif" font-size="14.00">interleave</text>
</g>
<!-- dd7d74432214482f9295d2a5e03f5f3f -->
<g id="node10" class="node">
<title>dd7d74432214482f9295d2a5e03f5f3f</title>
<polygon fill="none" stroke="black" points="234.5,-405 175.5,-405 175.5,-369 234.5,-369 234.5,-405"/>
<text text-anchor="middle" x="205" y="-383.3" font-family="Times New Roman,serif" font-size="14.00">dd7d74</text>
</g>
<!-- ddb1c802549c4ff9b033cab853a2b2a2&#45;&gt;dd7d74432214482f9295d2a5e03f5f3f -->
<g id="edge9" class="edge">
<title>ddb1c802549c4ff9b033cab853a2b2a2&#45;&gt;dd7d74432214482f9295d2a5e03f5f3f</title>
<path fill="none" stroke="black" d="M205,-455.8C205,-444.16 205,-428.55 205,-415.24"/>
<polygon fill="black" stroke="black" points="208.5,-415.18 205,-405.18 201.5,-415.18 208.5,-415.18"/>
<text text-anchor="middle" x="231" y="-426.8" font-family="Times New Roman,serif" font-size="14.00">interleave</text>
</g>
<!-- e329ac4fd4534834b03c37875cee9342 -->
<g id="node11" class="node">
<title>e329ac4fd4534834b03c37875cee9342</title>
<polygon fill="none" stroke="black" points="232,-318 176,-318 176,-282 232,-282 232,-318"/>
<text text-anchor="middle" x="204" y="-296.3" font-family="Times New Roman,serif" font-size="14.00">e329ac</text>
</g>
<!-- dd7d74432214482f9295d2a5e03f5f3f&#45;&gt;e329ac4fd4534834b03c37875cee9342 -->
<g id="edge10" class="edge">
<title>dd7d74432214482f9295d2a5e03f5f3f&#45;&gt;e329ac4fd4534834b03c37875cee9342</title>
<path fill="none" stroke="black" d="M204.8,-368.8C204.66,-357.16 204.48,-341.55 204.32,-328.24"/>
<polygon fill="black" stroke="black" points="207.82,-328.14 204.2,-318.18 200.82,-328.22 207.82,-328.14"/>
<text text-anchor="middle" x="226" y="-339.8" font-family="Times New Roman,serif" font-size="14.00">append</text>
</g>
<!-- e329ac4fd4534834b03c37875cee9342&#45;&gt;04825c2074de4da7ae8e593850cdce8c -->
<g id="edge28" class="edge">
<title>e329ac4fd4534834b03c37875cee9342&#45;&gt;04825c2074de4da7ae8e593850cdce8c</title>
<path fill="none" stroke="black" d="M204,-281.68C204,-264.82 204,-239.57 204,-220.15"/>
<polygon fill="black" stroke="black" points="207.5,-220.05 204,-210.05 200.5,-220.05 207.5,-220.05"/>
<text text-anchor="middle" x="246.5" y="-254.71" font-family="Times New Roman,serif" font-size="14.00">chop_and_join</text>
</g>
<!-- 386a11248b0c4586bc42cf7a500c9a45 -->
<g id="node12" class="node">
<title>386a11248b0c4586bc42cf7a500c9a45</title>
<polygon fill="none" stroke="black" points="448,-666 392,-666 392,-630 448,-630 448,-666"/>
<text text-anchor="middle" x="420" y="-644.3" font-family="Times New Roman,serif" font-size="14.00">386a11</text>
</g>
<!-- 386a11248b0c4586bc42cf7a500c9a45&#45;&gt;1aad0127df534f92afce642d6ae9a185 -->
<g id="edge11" class="edge">
<title>386a11248b0c4586bc42cf7a500c9a45&#45;&gt;1aad0127df534f92afce642d6ae9a185</title>
<path fill="none" stroke="black" d="M391.8,-634.21C361.33,-619.32 312.66,-595.54 279.11,-579.14"/>
<polygon fill="black" stroke="black" points="280.59,-575.97 270.07,-574.72 277.52,-582.26 280.59,-575.97"/>
<text text-anchor="middle" x="361.45" y="-610.48" font-family="Times New Roman,serif" font-size="14.00">interleave</text>
</g>
<!-- aecc57715a7e4c0399aef86cf0cb38dc -->
<g id="node13" class="node">
<title>aecc57715a7e4c0399aef86cf0cb38dc</title>
<polygon fill="none" stroke="black" points="380,-579 324,-579 324,-543 380,-543 380,-579"/>
<text text-anchor="middle" x="352" y="-557.3" font-family="Times New Roman,serif" font-size="14.00">aecc57</text>
</g>
<!-- 386a11248b0c4586bc42cf7a500c9a45&#45;&gt;aecc57715a7e4c0399aef86cf0cb38dc -->
<g id="edge12" class="edge">
<title>386a11248b0c4586bc42cf7a500c9a45&#45;&gt;aecc57715a7e4c0399aef86cf0cb38dc</title>
<path fill="none" stroke="black" d="M416.63,-629.98C413.95,-619.67 409.4,-606.67 402,-597 398.16,-591.97 393.39,-587.39 388.33,-583.31"/>
<polygon fill="black" stroke="black" points="390.36,-580.46 380.24,-577.33 386.2,-586.09 390.36,-580.46"/>
<text text-anchor="middle" x="436" y="-600.8" font-family="Times New Roman,serif" font-size="14.00">interleave</text>
</g>
<!-- f0655f5409634aa38046cfc64d364d27 -->
<g id="node14" class="node">
<title>f0655f5409634aa38046cfc64d364d27</title>
<polygon fill="none" stroke="black" points="379,-492 325,-492 325,-456 379,-456 379,-492"/>
<text text-anchor="middle" x="352" y="-470.3" font-family="Times New Roman,serif" font-size="14.00">f0655f</text>
</g>
<!-- aecc57715a7e4c0399aef86cf0cb38dc&#45;&gt;f0655f5409634aa38046cfc64d364d27 -->
<g id="edge13" class="edge">
<title>aecc57715a7e4c0399aef86cf0cb38dc&#45;&gt;f0655f5409634aa38046cfc64d364d27</title>
<path fill="none" stroke="black" d="M352,-542.8C352,-531.16 352,-515.55 352,-502.24"/>
<polygon fill="black" stroke="black" points="355.5,-502.18 352,-492.18 348.5,-502.18 355.5,-502.18"/>
<text text-anchor="middle" x="375" y="-513.8" font-family="Times New Roman,serif" font-size="14.00">seed100</text>
</g>
<!-- f0655f5409634aa38046cfc64d364d27&#45;&gt;dd7d74432214482f9295d2a5e03f5f3f -->
<g id="edge14" class="edge">
<title>f0655f5409634aa38046cfc64d364d27&#45;&gt;dd7d74432214482f9295d2a5e03f5f3f</title>
<path fill="none" stroke="black" d="M347.36,-455.9C343.57,-445.02 337.15,-431.43 327,-423 314.4,-412.53 275.28,-402.42 244.7,-395.78"/>
<polygon fill="black" stroke="black" points="245.21,-392.31 234.7,-393.66 243.76,-399.16 245.21,-392.31"/>
<text text-anchor="middle" x="365" y="-426.8" font-family="Times New Roman,serif" font-size="14.00">interleave</text>
</g>
<!-- e7ef5573b1904e96a243734ae7064035 -->
<g id="node15" class="node">
<title>e7ef5573b1904e96a243734ae7064035</title>
<polygon fill="none" stroke="black" points="290,-666 236,-666 236,-630 290,-630 290,-666"/>
<text text-anchor="middle" x="263" y="-644.3" font-family="Times New Roman,serif" font-size="14.00">e7ef55</text>
</g>
<!-- e7ef5573b1904e96a243734ae7064035&#45;&gt;1aad0127df534f92afce642d6ae9a185 -->
<g id="edge15" class="edge">
<title>e7ef5573b1904e96a243734ae7064035&#45;&gt;1aad0127df534f92afce642d6ae9a185</title>
<path fill="none" stroke="black" d="M235.97,-639.22C222.65,-633.86 207.8,-625.26 200,-612 194.63,-602.87 198.77,-593.75 206.2,-585.84"/>
<polygon fill="black" stroke="black" points="208.72,-588.28 213.76,-578.96 204.01,-583.1 208.72,-588.28"/>
<text text-anchor="middle" x="226" y="-600.8" font-family="Times New Roman,serif" font-size="14.00">interleave</text>
</g>
<!-- e7ef5573b1904e96a243734ae7064035&#45;&gt;aecc57715a7e4c0399aef86cf0cb38dc -->
<g id="edge16" class="edge">
<title>e7ef5573b1904e96a243734ae7064035&#45;&gt;aecc57715a7e4c0399aef86cf0cb38dc</title>
<path fill="none" stroke="black" d="M263.44,-629.57C264.54,-619.1 267.5,-606.09 275,-597 285.02,-584.85 300.16,-576.74 314.37,-571.41"/>
<polygon fill="black" stroke="black" points="315.64,-574.68 323.99,-568.16 313.4,-568.04 315.64,-574.68"/>
<text text-anchor="middle" x="301" y="-600.8" font-family="Times New Roman,serif" font-size="14.00">interleave</text>
</g>
<!-- 8d6b300ca2ed4cce8ee642d519303697 -->
<g id="node16" class="node">
<title>8d6b300ca2ed4cce8ee642d519303697</title>
<polygon fill="none" stroke="black" points="449.5,-753 390.5,-753 390.5,-717 449.5,-717 449.5,-753"/>
<text text-anchor="middle" x="420" y="-731.3" font-family="Times New Roman,serif" font-size="14.00">8d6b30</text>
</g>
<!-- 8d6b300ca2ed4cce8ee642d519303697&#45;&gt;386a11248b0c4586bc42cf7a500c9a45 -->
<g id="edge17" class="edge">
<title>8d6b300ca2ed4cce8ee642d519303697&#45;&gt;386a11248b0c4586bc42cf7a500c9a45</title>
<path fill="none" stroke="black" d="M420,-716.8C420,-705.16 420,-689.55 420,-676.24"/>
<polygon fill="black" stroke="black" points="423.5,-676.18 420,-666.18 416.5,-676.18 423.5,-676.18"/>
<text text-anchor="middle" x="440" y="-687.8" font-family="Times New Roman,serif" font-size="14.00">replace</text>
</g>
<!-- d73bd8a42e144dc59e173c1075724502 -->
<g id="node17" class="node">
<title>d73bd8a42e144dc59e173c1075724502</title>
<polygon fill="none" stroke="black" points="280.5,-753 221.5,-753 221.5,-717 280.5,-717 280.5,-753"/>
<text text-anchor="middle" x="251" y="-731.3" font-family="Times New Roman,serif" font-size="14.00">d73bd8</text>
</g>
<!-- d73bd8a42e144dc59e173c1075724502&#45;&gt;e7ef5573b1904e96a243734ae7064035 -->
<g id="edge18" class="edge">
<title>d73bd8a42e144dc59e173c1075724502&#45;&gt;e7ef5573b1904e96a243734ae7064035</title>
<path fill="none" stroke="black" d="M253.43,-716.8C255.07,-705.16 257.28,-689.55 259.15,-676.24"/>
<polygon fill="black" stroke="black" points="262.64,-676.57 260.58,-666.18 255.71,-675.59 262.64,-676.57"/>
<text text-anchor="middle" x="279" y="-687.8" font-family="Times New Roman,serif" font-size="14.00">append</text>
</g>
<!-- 8c0043588e8e49e1a262b0379c732c70 -->
<g id="node18" class="node">
<title>8c0043588e8e49e1a262b0379c732c70</title>
<polygon fill="none" stroke="black" points="355.5,-753 298.5,-753 298.5,-717 355.5,-717 355.5,-753"/>
<text text-anchor="middle" x="327" y="-731.3" font-family="Times New Roman,serif" font-size="14.00">8c0043</text>
</g>
<!-- 8c0043588e8e49e1a262b0379c732c70&#45;&gt;e7ef5573b1904e96a243734ae7064035 -->
<g id="edge19" class="edge">
<title>8c0043588e8e49e1a262b0379c732c70&#45;&gt;e7ef5573b1904e96a243734ae7064035</title>
<path fill="none" stroke="black" d="M321.22,-716.79C317.31,-706.64 311.49,-693.91 304,-684 301.12,-680.19 297.75,-676.51 294.21,-673.05"/>
<polygon fill="black" stroke="black" points="296.55,-670.45 286.8,-666.31 291.84,-675.63 296.55,-670.45"/>
<text text-anchor="middle" x="334" y="-687.8" font-family="Times New Roman,serif" font-size="14.00">append</text>
</g>
<!-- 9a7a97e3eb8a4a03afdf18838bc12ba6 -->
<g id="node19" class="node">
<title>9a7a97e3eb8a4a03afdf18838bc12ba6</title>
<polygon fill="none" stroke="black" points="279,-840 223,-840 223,-804 279,-804 279,-840"/>
<text text-anchor="middle" x="251" y="-818.3" font-family="Times New Roman,serif" font-size="14.00">9a7a97</text>
</g>
<!-- 9a7a97e3eb8a4a03afdf18838bc12ba6&#45;&gt;d73bd8a42e144dc59e173c1075724502 -->
<g id="edge20" class="edge">
<title>9a7a97e3eb8a4a03afdf18838bc12ba6&#45;&gt;d73bd8a42e144dc59e173c1075724502</title>
<path fill="none" stroke="black" d="M251,-803.8C251,-792.16 251,-776.55 251,-763.24"/>
<polygon fill="black" stroke="black" points="254.5,-763.18 251,-753.18 247.5,-763.18 254.5,-763.18"/>
<text text-anchor="middle" x="274" y="-774.8" font-family="Times New Roman,serif" font-size="14.00">dropout</text>
</g>
<!-- af7b7a79e30446868fb7bb8cb35fe3cf -->
<g id="node20" class="node">
<title>af7b7a79e30446868fb7bb8cb35fe3cf</title>
<polygon fill="none" stroke="black" points="278,-927 224,-927 224,-891 278,-891 278,-927"/>
<text text-anchor="middle" x="251" y="-905.3" font-family="Times New Roman,serif" font-size="14.00">af7b7a</text>
</g>
<!-- af7b7a79e30446868fb7bb8cb35fe3cf&#45;&gt;9a7a97e3eb8a4a03afdf18838bc12ba6 -->
<g id="edge21" class="edge">
<title>af7b7a79e30446868fb7bb8cb35fe3cf&#45;&gt;9a7a97e3eb8a4a03afdf18838bc12ba6</title>
<path fill="none" stroke="black" d="M251,-890.8C251,-879.16 251,-863.55 251,-850.24"/>
<polygon fill="black" stroke="black" points="254.5,-850.18 251,-840.18 247.5,-850.18 254.5,-850.18"/>
<text text-anchor="middle" x="266.5" y="-861.8" font-family="Times New Roman,serif" font-size="14.00">insert</text>
</g>
<!-- 9b7c40e28054449e875dfc0f66d990b5 -->
<g id="node21" class="node">
<title>9b7c40e28054449e875dfc0f66d990b5</title>
<polygon fill="none" stroke="black" points="280,-1014 222,-1014 222,-978 280,-978 280,-1014"/>
<text text-anchor="middle" x="251" y="-992.3" font-family="Times New Roman,serif" font-size="14.00">9b7c40</text>
</g>
<!-- 9b7c40e28054449e875dfc0f66d990b5&#45;&gt;af7b7a79e30446868fb7bb8cb35fe3cf -->
<g id="edge22" class="edge">
<title>9b7c40e28054449e875dfc0f66d990b5&#45;&gt;af7b7a79e30446868fb7bb8cb35fe3cf</title>
<path fill="none" stroke="black" d="M251,-977.8C251,-966.16 251,-950.55 251,-937.24"/>
<polygon fill="black" stroke="black" points="254.5,-937.18 251,-927.18 247.5,-937.18 254.5,-937.18"/>
<text text-anchor="middle" x="266.5" y="-948.8" font-family="Times New Roman,serif" font-size="14.00">insert</text>
</g>
<!-- 1eefa14b09ca423aba791de6576bf0ec -->
<g id="node22" class="node">
<title>1eefa14b09ca423aba791de6576bf0ec</title>
<polygon fill="grey" stroke="black" points="516,-579 462,-579 462,-543 516,-543 516,-579"/>
<text text-anchor="middle" x="489" y="-557.3" font-family="Times New Roman,serif" font-size="14.00">1eefa1</text>
</g>
<!-- 1eefa14b09ca423aba791de6576bf0ec&#45;&gt;407df5f1ca244f148c78431236fdbb47 -->
<g id="edge23" class="edge">
<title>1eefa14b09ca423aba791de6576bf0ec&#45;&gt;407df5f1ca244f148c78431236fdbb47</title>
<path fill="none" stroke="black" d="M483.54,-542.8C479.8,-531.05 474.78,-515.24 470.53,-501.84"/>
<polygon fill="black" stroke="black" points="473.82,-500.65 467.46,-492.18 467.15,-502.77 473.82,-500.65"/>
<text text-anchor="middle" x="493" y="-513.8" font-family="Times New Roman,serif" font-size="14.00">motif</text>
</g>
<!-- 03837ded50074ceaa8f40f91db47d2b1 -->
<g id="node23" class="node">
<title>03837ded50074ceaa8f40f91db47d2b1</title>
<polygon fill="grey" stroke="black" points="528,-666 470,-666 470,-630 528,-630 528,-666"/>
<text text-anchor="middle" x="499" y="-644.3" font-family="Times New Roman,serif" font-size="14.00">03837d</text>
</g>
<!-- 03837ded50074ceaa8f40f91db47d2b1&#45;&gt;1eefa14b09ca423aba791de6576bf0ec -->
<g id="edge24" class="edge">
<title>03837ded50074ceaa8f40f91db47d2b1&#45;&gt;1eefa14b09ca423aba791de6576bf0ec</title>
<path fill="none" stroke="black" d="M496.98,-629.8C495.61,-618.16 493.77,-602.55 492.2,-589.24"/>
<polygon fill="black" stroke="black" points="495.66,-588.7 491.02,-579.18 488.71,-589.52 495.66,-588.7"/>
<text text-anchor="middle" x="510" y="-600.8" font-family="Times New Roman,serif" font-size="14.00">motif</text>
</g>
<!-- e2609fa33d0241ae9e74080e374375c3 -->
<g id="node24" class="node">
<title>e2609fa33d0241ae9e74080e374375c3</title>
<polygon fill="grey" stroke="black" points="526,-753 472,-753 472,-717 526,-717 526,-753"/>
<text text-anchor="middle" x="499" y="-731.3" font-family="Times New Roman,serif" font-size="14.00">e2609f</text>
</g>
<!-- e2609fa33d0241ae9e74080e374375c3&#45;&gt;03837ded50074ceaa8f40f91db47d2b1 -->
<g id="edge25" class="edge">
<title>e2609fa33d0241ae9e74080e374375c3&#45;&gt;03837ded50074ceaa8f40f91db47d2b1</title>
<path fill="none" stroke="black" d="M499,-716.8C499,-705.16 499,-689.55 499,-676.24"/>
<polygon fill="black" stroke="black" points="502.5,-676.18 499,-666.18 495.5,-676.18 502.5,-676.18"/>
<text text-anchor="middle" x="519" y="-687.8" font-family="Times New Roman,serif" font-size="14.00">seed13</text>
</g>
<!-- 15fc92e038cd4f23a18df59fdc2123d7 -->
<g id="node25" class="node">
<title>15fc92e038cd4f23a18df59fdc2123d7</title>
<polygon fill="grey" stroke="black" points="526.5,-840 471.5,-840 471.5,-804 526.5,-804 526.5,-840"/>
<text text-anchor="middle" x="499" y="-818.3" font-family="Times New Roman,serif" font-size="14.00">15fc92</text>
</g>
<!-- 15fc92e038cd4f23a18df59fdc2123d7&#45;&gt;e2609fa33d0241ae9e74080e374375c3 -->
<g id="edge26" class="edge">
<title>15fc92e038cd4f23a18df59fdc2123d7&#45;&gt;e2609fa33d0241ae9e74080e374375c3</title>
<path fill="none" stroke="black" d="M499,-803.8C499,-792.16 499,-776.55 499,-763.24"/>
<polygon fill="black" stroke="black" points="502.5,-763.18 499,-753.18 495.5,-763.18 502.5,-763.18"/>
<text text-anchor="middle" x="522" y="-774.8" font-family="Times New Roman,serif" font-size="14.00">dropout</text>
</g>
<!-- 21d236f614664dd28474e1258315e43e -->
<g id="node26" class="node">
<title>21d236f614664dd28474e1258315e43e</title>
<polygon fill="grey" stroke="black" points="528,-927 470,-927 470,-891 528,-891 528,-927"/>
<text text-anchor="middle" x="499" y="-905.3" font-family="Times New Roman,serif" font-size="14.00">21d236</text>
</g>
<!-- 21d236f614664dd28474e1258315e43e&#45;&gt;15fc92e038cd4f23a18df59fdc2123d7 -->
<g id="edge27" class="edge">
<title>21d236f614664dd28474e1258315e43e&#45;&gt;15fc92e038cd4f23a18df59fdc2123d7</title>
<path fill="none" stroke="black" d="M499,-890.8C499,-879.16 499,-863.55 499,-850.24"/>
<polygon fill="black" stroke="black" points="502.5,-850.18 499,-840.18 495.5,-850.18 502.5,-850.18"/>
<text text-anchor="middle" x="514.5" y="-861.8" font-family="Times New Roman,serif" font-size="14.00">insert</text>
</g>
<!-- 453740b93505461785b216f3457a23f6 -->
<g id="node27" class="node">
<title>453740b93505461785b216f3457a23f6</title>
<polygon fill="none" stroke="black" points="123.5,-318 66.5,-318 66.5,-282 123.5,-282 123.5,-318"/>
<text text-anchor="middle" x="95" y="-296.3" font-family="Times New Roman,serif" font-size="14.00">453740</text>
</g>
<!-- 453740b93505461785b216f3457a23f6&#45;&gt;04825c2074de4da7ae8e593850cdce8c -->
<g id="edge29" class="edge">
<title>453740b93505461785b216f3457a23f6&#45;&gt;04825c2074de4da7ae8e593850cdce8c</title>
<path fill="none" stroke="black" d="M94.49,-281.77C94.95,-265.98 98.06,-242.87 111,-228 124.73,-212.23 146.31,-203.54 165.22,-198.77"/>
<polygon fill="black" stroke="black" points="166.11,-202.16 175.1,-196.56 164.58,-195.33 166.11,-202.16"/>
<text text-anchor="middle" x="153.5" y="-242.3" font-family="Times New Roman,serif" font-size="14.00">chop_and_join</text>
</g>
<!-- a63f137e8345409885df0a4c8d553f68 -->
<g id="node28" class="node">
<title>a63f137e8345409885df0a4c8d553f68</title>
<polygon fill="none" stroke="black" points="157,-579 103,-579 103,-543 157,-543 157,-579"/>
<text text-anchor="middle" x="130" y="-557.3" font-family="Times New Roman,serif" font-size="14.00">a63f13</text>
</g>
<!-- a63f137e8345409885df0a4c8d553f68&#45;&gt;ddb1c802549c4ff9b033cab853a2b2a2 -->
<g id="edge30" class="edge">
<title>a63f137e8345409885df0a4c8d553f68&#45;&gt;ddb1c802549c4ff9b033cab853a2b2a2</title>
<path fill="none" stroke="black" d="M132.76,-542.81C135.13,-532.43 139.41,-519.43 147,-510 152.41,-503.28 159.47,-497.54 166.81,-492.77"/>
<polygon fill="black" stroke="black" points="168.66,-495.74 175.45,-487.61 165.07,-489.73 168.66,-495.74"/>
<text text-anchor="middle" x="173" y="-513.8" font-family="Times New Roman,serif" font-size="14.00">interleave</text>
</g>
<!-- cdd9893e63a443af89e3d782b1f04300 -->
<g id="node29" class="node">
<title>cdd9893e63a443af89e3d782b1f04300</title>
<polygon fill="none" stroke="black" points="159.5,-666 100.5,-666 100.5,-630 159.5,-630 159.5,-666"/>
<text text-anchor="middle" x="130" y="-644.3" font-family="Times New Roman,serif" font-size="14.00">cdd989</text>
</g>
<!-- cdd9893e63a443af89e3d782b1f04300&#45;&gt;a63f137e8345409885df0a4c8d553f68 -->
<g id="edge31" class="edge">
<title>cdd9893e63a443af89e3d782b1f04300&#45;&gt;a63f137e8345409885df0a4c8d553f68</title>
<path fill="none" stroke="black" d="M130,-629.8C130,-618.16 130,-602.55 130,-589.24"/>
<polygon fill="black" stroke="black" points="133.5,-589.18 130,-579.18 126.5,-589.18 133.5,-589.18"/>
<text text-anchor="middle" x="153" y="-600.8" font-family="Times New Roman,serif" font-size="14.00">dropout</text>
</g>
<!-- 822e2b5430f3480aa6e1cff15d51d5d5 -->
<g id="node30" class="node">
<title>822e2b5430f3480aa6e1cff15d51d5d5</title>
<polygon fill="none" stroke="black" points="158.5,-753 101.5,-753 101.5,-717 158.5,-717 158.5,-753"/>
<text text-anchor="middle" x="130" y="-731.3" font-family="Times New Roman,serif" font-size="14.00">822e2b</text>
</g>
<!-- 822e2b5430f3480aa6e1cff15d51d5d5&#45;&gt;cdd9893e63a443af89e3d782b1f04300 -->
<g id="edge32" class="edge">
<title>822e2b5430f3480aa6e1cff15d51d5d5&#45;&gt;cdd9893e63a443af89e3d782b1f04300</title>
<path fill="none" stroke="black" d="M130,-716.8C130,-705.16 130,-689.55 130,-676.24"/>
<polygon fill="black" stroke="black" points="133.5,-676.18 130,-666.18 126.5,-676.18 133.5,-676.18"/>
<text text-anchor="middle" x="145" y="-687.8" font-family="Times New Roman,serif" font-size="14.00">motif</text>
</g>
<!-- ab5d517fd1ac47f9ab3568fe75112b66 -->
<g id="node31" class="node">
<title>ab5d517fd1ac47f9ab3568fe75112b66</title>
<polygon fill="none" stroke="black" points="164,-840 106,-840 106,-804 164,-804 164,-840"/>
<text text-anchor="middle" x="135" y="-818.3" font-family="Times New Roman,serif" font-size="14.00">ab5d51</text>
</g>
<!-- ab5d517fd1ac47f9ab3568fe75112b66&#45;&gt;822e2b5430f3480aa6e1cff15d51d5d5 -->
<g id="edge33" class="edge">
<title>ab5d517fd1ac47f9ab3568fe75112b66&#45;&gt;822e2b5430f3480aa6e1cff15d51d5d5</title>
<path fill="none" stroke="black" d="M133.99,-803.8C133.3,-792.16 132.39,-776.55 131.6,-763.24"/>
<polygon fill="black" stroke="black" points="135.09,-762.96 131.01,-753.18 128.1,-763.37 135.09,-762.96"/>
<text text-anchor="middle" x="175.5" y="-774.8" font-family="Times New Roman,serif" font-size="14.00">chop_and_join</text>
</g>
<!-- 4e77f3b30ddb4c63a71deb979bdda7dd -->
<g id="node32" class="node">
<title>4e77f3b30ddb4c63a71deb979bdda7dd</title>
<polygon fill="none" stroke="black" points="54,-840 0,-840 0,-804 54,-804 54,-840"/>
<text text-anchor="middle" x="27" y="-818.3" font-family="Times New Roman,serif" font-size="14.00">4e77f3</text>
</g>
<!-- 4e77f3b30ddb4c63a71deb979bdda7dd&#45;&gt;822e2b5430f3480aa6e1cff15d51d5d5 -->
<g id="edge34" class="edge">
<title>4e77f3b30ddb4c63a71deb979bdda7dd&#45;&gt;822e2b5430f3480aa6e1cff15d51d5d5</title>
<path fill="none" stroke="black" d="M29.16,-803.85C31.31,-793.22 35.57,-779.94 44,-771 56.55,-757.69 74.86,-749.31 91.37,-744.09"/>
<polygon fill="black" stroke="black" points="92.7,-747.35 101.35,-741.24 90.77,-740.62 92.7,-747.35"/>
<text text-anchor="middle" x="86.5" y="-774.8" font-family="Times New Roman,serif" font-size="14.00">chop_and_join</text>
</g>
<!-- dbdce161bf2b4564852c1d7356b7a7d7 -->
<g id="node33" class="node">
<title>dbdce161bf2b4564852c1d7356b7a7d7</title>
<polygon fill="none" stroke="black" points="121.5,-405 62.5,-405 62.5,-369 121.5,-369 121.5,-405"/>
<text text-anchor="middle" x="92" y="-383.3" font-family="Times New Roman,serif" font-size="14.00">dbdce1</text>
</g>
<!-- dbdce161bf2b4564852c1d7356b7a7d7&#45;&gt;453740b93505461785b216f3457a23f6 -->
<g id="edge35" class="edge">
<title>dbdce161bf2b4564852c1d7356b7a7d7&#45;&gt;453740b93505461785b216f3457a23f6</title>
<path fill="none" stroke="black" d="M92.61,-368.8C93.02,-357.16 93.57,-341.55 94.04,-328.24"/>
<polygon fill="black" stroke="black" points="97.54,-328.3 94.39,-318.18 90.54,-328.05 97.54,-328.3"/>
<text text-anchor="middle" x="114" y="-339.8" font-family="Times New Roman,serif" font-size="14.00">replace</text>
</g>
<!-- c6661f3d52814a748d9d961ae8d917ee -->
<g id="node34" class="node">
<title>c6661f3d52814a748d9d961ae8d917ee</title>
<polygon fill="none" stroke="black" points="106.5,-492 51.5,-492 51.5,-456 106.5,-456 106.5,-492"/>
<text text-anchor="middle" x="79" y="-470.3" font-family="Times New Roman,serif" font-size="14.00">c6661f</text>
</g>
<!-- c6661f3d52814a748d9d961ae8d917ee&#45;&gt;dbdce161bf2b4564852c1d7356b7a7d7 -->
<g id="edge36" class="edge">
<title>c6661f3d52814a748d9d961ae8d917ee&#45;&gt;dbdce161bf2b4564852c1d7356b7a7d7</title>
<path fill="none" stroke="black" d="M81.63,-455.8C83.41,-444.16 85.8,-428.55 87.83,-415.24"/>
<polygon fill="black" stroke="black" points="91.32,-415.59 89.37,-405.18 84.4,-414.54 91.32,-415.59"/>
<text text-anchor="middle" x="107" y="-426.8" font-family="Times New Roman,serif" font-size="14.00">replace</text>
</g>
<!-- 5b50a2d49d94409e8f02cbfb6d5a9354 -->
<g id="node35" class="node">
<title>5b50a2d49d94409e8f02cbfb6d5a9354</title>
<polygon fill="none" stroke="black" points="83.5,-579 26.5,-579 26.5,-543 83.5,-543 83.5,-579"/>
<text text-anchor="middle" x="55" y="-557.3" font-family="Times New Roman,serif" font-size="14.00">5b50a2</text>
</g>
<!-- 5b50a2d49d94409e8f02cbfb6d5a9354&#45;&gt;c6661f3d52814a748d9d961ae8d917ee -->
<g id="edge37" class="edge">
<title>5b50a2d49d94409e8f02cbfb6d5a9354&#45;&gt;c6661f3d52814a748d9d961ae8d917ee</title>
<path fill="none" stroke="black" d="M59.24,-542.82C61.69,-533.14 64.88,-520.86 68,-510 68.76,-507.34 69.59,-504.57 70.42,-501.81"/>
<polygon fill="black" stroke="black" points="73.84,-502.63 73.46,-492.04 67.15,-500.55 73.84,-502.63"/>
<text text-anchor="middle" x="88" y="-513.8" font-family="Times New Roman,serif" font-size="14.00">replace</text>
</g>
<!-- 96fcacb741e84813ac5fee7380ab6a40 -->
<g id="node36" class="node">
<title>96fcacb741e84813ac5fee7380ab6a40</title>
<polygon fill="none" stroke="black" points="82,-666 28,-666 28,-630 82,-630 82,-666"/>
<text text-anchor="middle" x="55" y="-644.3" font-family="Times New Roman,serif" font-size="14.00">96fcac</text>
</g>
<!-- 96fcacb741e84813ac5fee7380ab6a40&#45;&gt;5b50a2d49d94409e8f02cbfb6d5a9354 -->
<g id="edge38" class="edge">
<title>96fcacb741e84813ac5fee7380ab6a40&#45;&gt;5b50a2d49d94409e8f02cbfb6d5a9354</title>
<path fill="none" stroke="black" d="M55,-629.8C55,-618.16 55,-602.55 55,-589.24"/>
<polygon fill="black" stroke="black" points="58.5,-589.18 55,-579.18 51.5,-589.18 58.5,-589.18"/>
<text text-anchor="middle" x="75" y="-600.8" font-family="Times New Roman,serif" font-size="14.00">replace</text>
</g>
</g>
</svg>
