<?xml version="1.0" encoding="UTF-8" standalone="no"?>
<!DOCTYPE svg PUBLIC "-//W3C//DTD SVG 1.1//EN"
 "http://www.w3.org/Graphics/SVG/1.1/DTD/svg11.dtd">
<!-- Generated by graphviz version 2.46.0 (20210118.1747)
 -->
<!-- Pages: 1 -->
<svg width="564pt" height="956pt"
 viewBox="0.00 0.00 563.55 956.00" xmlns="http://www.w3.org/2000/svg" xmlns:xlink="http://www.w3.org/1999/xlink">
<g id="graph0" class="graph" transform="scale(1 1) rotate(0) translate(4 952)">
<polygon fill="white" stroke="transparent" points="-4,4 -4,-952 559.55,-952 559.55,4 -4,4"/>
<!-- 0313bcfcc02346df9e900def58061cc7 -->
<g id="node1" class="node">
<title>0313bcfcc02346df9e900def58061cc7</title>
<ellipse fill="grey" stroke="black" cx="304.55" cy="-18" rx="37.89" ry="18"/>
<text text-anchor="middle" x="304.55" y="-14.3" font-family="Times New Roman,serif" font-size="14.00">0313bc</text>
</g>
<!-- e81bd4ed0e824800a27bbac779dec6ce -->
<g id="node2" class="node">
<title>e81bd4ed0e824800a27bbac779dec6ce</title>
<polygon fill="grey" stroke="black" points="333.55,-123 275.55,-123 275.55,-87 333.55,-87 333.55,-123"/>
<text text-anchor="middle" x="304.55" y="-101.3" font-family="Times New Roman,serif" font-size="14.00">e81bd4</text>
</g>
<!-- e81bd4ed0e824800a27bbac779dec6ce&#45;&gt;0313bcfcc02346df9e900def58061cc7 -->
<g id="edge1" class="edge">
<title>e81bd4ed0e824800a27bbac779dec6ce&#45;&gt;0313bcfcc02346df9e900def58061cc7</title>
<path fill="none" stroke="black" d="M304.55,-86.8C304.55,-75.16 304.55,-59.55 304.55,-46.24"/>
<polygon fill="black" stroke="black" points="308.05,-46.17 304.55,-36.17 301.05,-46.18 308.05,-46.17"/>
<text text-anchor="middle" x="326.05" y="-57.8" font-family="Times New Roman,serif" font-size="14.00">cleaned</text>
</g>
<!-- 216195deed3647da9d1e9b87a5ea4bd3 -->
<g id="node3" class="node">
<title>216195deed3647da9d1e9b87a5ea4bd3</title>
<polygon fill="grey" stroke="black" points="333.05,-210 276.05,-210 276.05,-174 333.05,-174 333.05,-210"/>
<text text-anchor="middle" x="304.55" y="-188.3" font-family="Times New Roman,serif" font-size="14.00">216195</text>
</g>
<!-- 216195deed3647da9d1e9b87a5ea4bd3&#45;&gt;e81bd4ed0e824800a27bbac779dec6ce -->
<g id="edge2" class="edge">
<title>216195deed3647da9d1e9b87a5ea4bd3&#45;&gt;e81bd4ed0e824800a27bbac779dec6ce</title>
<path fill="none" stroke="black" d="M304.55,-173.8C304.55,-162.16 304.55,-146.55 304.55,-133.24"/>
<polygon fill="black" stroke="black" points="308.05,-133.18 304.55,-123.18 301.05,-133.18 308.05,-133.18"/>
<text text-anchor="middle" x="323.55" y="-144.8" font-family="Times New Roman,serif" font-size="14.00">shuffle</text>
</g>
<!-- db8c20cd9df84be9a803f0060f465934 -->
<g id="node4" class="node">
<title>db8c20cd9df84be9a803f0060f465934</title>
<polygon fill="grey" stroke="black" points="334.05,-297 275.05,-297 275.05,-261 334.05,-261 334.05,-297"/>
<text text-anchor="middle" x="304.55" y="-275.3" font-family="Times New Roman,serif" font-size="14.00">db8c20</text>
</g>
<!-- db8c20cd9df84be9a803f0060f465934&#45;&gt;216195deed3647da9d1e9b87a5ea4bd3 -->
<g id="edge3" class="edge">
<title>db8c20cd9df84be9a803f0060f465934&#45;&gt;216195deed3647da9d1e9b87a5ea4bd3</title>
<path fill="none" stroke="black" d="M304.55,-260.8C304.55,-249.16 304.55,-233.55 304.55,-220.24"/>
<polygon fill="black" stroke="black" points="308.05,-220.18 304.55,-210.18 301.05,-220.18 308.05,-220.18"/>
<text text-anchor="middle" x="325.55" y="-231.8" font-family="Times New Roman,serif" font-size="14.00">append</text>
</g>
<!-- c6cfc1300ed6404395b1a35fb2295d0f -->
<g id="node5" class="node">
<title>c6cfc1300ed6404395b1a35fb2295d0f</title>
<polygon fill="none" stroke="black" points="278.05,-384 223.05,-384 223.05,-348 278.05,-348 278.05,-384"/>
<text text-anchor="middle" x="250.55" y="-362.3" font-family="Times New Roman,serif" font-size="14.00">c6cfc1</text>
</g>
<!-- c6cfc1300ed6404395b1a35fb2295d0f&#45;&gt;db8c20cd9df84be9a803f0060f465934 -->
<g id="edge4" class="edge">
<title>c6cfc1300ed6404395b1a35fb2295d0f&#45;&gt;db8c20cd9df84be9a803f0060f465934</title>
<path fill="none" stroke="black" d="M261.48,-347.8C269.17,-335.7 279.58,-319.3 288.25,-305.67"/>
<polygon fill="black" stroke="black" points="291.23,-307.5 293.64,-297.18 285.32,-303.75 291.23,-307.5"/>
<text text-anchor="middle" x="301.55" y="-318.8" font-family="Times New Roman,serif" font-size="14.00">append</text>
</g>
<!-- bd9e97de11f545efa35bb381da0e9a51 -->
<g id="node6" class="node">
<title>bd9e97de11f545efa35bb381da0e9a51</title>
<polygon fill="grey" stroke="black" points="420.55,-612 362.55,-612 362.55,-576 420.55,-576 420.55,-612"/>
<text text-anchor="middle" x="391.55" y="-590.3" font-family="Times New Roman,serif" font-size="14.00">bd9e97</text>
</g>
<!-- bd9e97de11f545efa35bb381da0e9a51&#45;&gt;db8c20cd9df84be9a803f0060f465934 -->
<g id="edge5" class="edge">
<title>bd9e97de11f545efa35bb381da0e9a51&#45;&gt;db8c20cd9df84be9a803f0060f465934</title>
<path fill="none" stroke="black" d="M386.5,-575.7C371.93,-522.96 329.79,-370.39 312.3,-307.06"/>
<polygon fill="black" stroke="black" points="315.65,-306.06 309.62,-297.35 308.91,-307.92 315.65,-306.06"/>
<text text-anchor="middle" x="328.4" y="-445.18" font-family="Times New Roman,serif" font-size="14.00">append</text>
</g>
<!-- cc0d293d3e7640dc851cb844fd4a60b1 -->
<g id="node7" class="node">
<title>cc0d293d3e7640dc851cb844fd4a60b1</title>
<polygon fill="none" stroke="black" points="155.55,-720 97.55,-720 97.55,-684 155.55,-684 155.55,-720"/>
<text text-anchor="middle" x="126.55" y="-698.3" font-family="Times New Roman,serif" font-size="14.00">cc0d29</text>
</g>
<!-- cc0d293d3e7640dc851cb844fd4a60b1&#45;&gt;c6cfc1300ed6404395b1a35fb2295d0f -->
<g id="edge6" class="edge">
<title>cc0d293d3e7640dc851cb844fd4a60b1&#45;&gt;c6cfc1300ed6404395b1a35fb2295d0f</title>
<path fill="none" stroke="black" d="M133.22,-683.94C153.69,-628.44 215.79,-460.19 240.37,-393.58"/>
<polygon fill="black" stroke="black" points="243.67,-394.75 243.85,-384.15 237.1,-392.32 243.67,-394.75"/>
<text text-anchor="middle" x="160.79" y="-542.56" font-family="Times New Roman,serif" font-size="14.00">interleave</text>
</g>
<!-- 299c127fc4304fb79cdfafd2aa7ca2a2 -->
<g id="node8" class="node">
<title>299c127fc4304fb79cdfafd2aa7ca2a2</title>
<polygon fill="none" stroke="black" points="279.05,-471 222.05,-471 222.05,-435 279.05,-435 279.05,-471"/>
<text text-anchor="middle" x="250.55" y="-449.3" font-family="Times New Roman,serif" font-size="14.00">299c12</text>
</g>
<!-- 299c127fc4304fb79cdfafd2aa7ca2a2&#45;&gt;c6cfc1300ed6404395b1a35fb2295d0f -->
<g id="edge7" class="edge">
<title>299c127fc4304fb79cdfafd2aa7ca2a2&#45;&gt;c6cfc1300ed6404395b1a35fb2295d0f</title>
<path fill="none" stroke="black" d="M250.55,-434.8C250.55,-423.16 250.55,-407.55 250.55,-394.24"/>
<polygon fill="black" stroke="black" points="254.05,-394.18 250.55,-384.18 247.05,-394.18 254.05,-394.18"/>
<text text-anchor="middle" x="276.55" y="-405.8" font-family="Times New Roman,serif" font-size="14.00">interleave</text>
</g>
<!-- c155142de1ed4b9a9cd1f3abc16568ef -->
<g id="node9" class="node">
<title>c155142de1ed4b9a9cd1f3abc16568ef</title>
<polygon fill="none" stroke="black" points="155.05,-861 98.05,-861 98.05,-825 155.05,-825 155.05,-861"/>
<text text-anchor="middle" x="126.55" y="-839.3" font-family="Times New Roman,serif" font-size="14.00">c15514</text>
</g>
<!-- c155142de1ed4b9a9cd1f3abc16568ef&#45;&gt;cc0d293d3e7640dc851cb844fd4a60b1 -->
<g id="edge8" class="edge">
<title>c155142de1ed4b9a9cd1f3abc16568ef&#45;&gt;cc0d293d3e7640dc851cb844fd4a60b1</title>
<path fill="none" stroke="black" d="M126.55,-824.96C126.55,-801.4 126.55,-758.64 126.55,-730.53"/>
<polygon fill="black" stroke="black" points="130.05,-730.18 126.55,-720.18 123.05,-730.18 130.05,-730.18"/>
<text text-anchor="middle" x="146.55" y="-795.8" font-family="Times New Roman,serif" font-size="14.00">replace</text>
</g>
<!-- 9ae31cbb9be141e18c0702b29dda8dbc -->
<g id="node10" class="node">
<title>9ae31cbb9be141e18c0702b29dda8dbc</title>
<polygon fill="none" stroke="black" points="264.55,-948 208.55,-948 208.55,-912 264.55,-912 264.55,-948"/>
<text text-anchor="middle" x="236.55" y="-926.3" font-family="Times New Roman,serif" font-size="14.00">9ae31c</text>
</g>
<!-- 9ae31cbb9be141e18c0702b29dda8dbc&#45;&gt;c155142de1ed4b9a9cd1f3abc16568ef -->
<g id="edge9" class="edge">
<title>9ae31cbb9be141e18c0702b29dda8dbc&#45;&gt;c155142de1ed4b9a9cd1f3abc16568ef</title>
<path fill="none" stroke="black" d="M208.19,-928.74C155.39,-927.58 45.19,-921.8 21.55,-894 0,-868.66 49.69,-855.22 87.84,-848.87"/>
<polygon fill="black" stroke="black" points="88.4,-852.33 97.74,-847.33 87.32,-845.41 88.4,-852.33"/>
<text text-anchor="middle" x="64.05" y="-882.8" font-family="Times New Roman,serif" font-size="14.00">chop_and_join</text>
</g>
<!-- dd84218333e34f73a7daa9e519916181 -->
<g id="node11" class="node">
<title>dd84218333e34f73a7daa9e519916181</title>
<polygon fill="none" stroke="black" points="300.05,-861 241.05,-861 241.05,-825 300.05,-825 300.05,-861"/>
<text text-anchor="middle" x="270.55" y="-839.3" font-family="Times New Roman,serif" font-size="14.00">dd8421</text>
</g>
<!-- 9ae31cbb9be141e18c0702b29dda8dbc&#45;&gt;dd84218333e34f73a7daa9e519916181 -->
<g id="edge10" class="edge">
<title>9ae31cbb9be141e18c0702b29dda8dbc&#45;&gt;dd84218333e34f73a7daa9e519916181</title>
<path fill="none" stroke="black" d="M233.9,-911.72C233.1,-901.79 233.35,-889.29 237.55,-879 239,-875.47 240.98,-872.08 243.25,-868.9"/>
<polygon fill="black" stroke="black" points="246.11,-870.93 249.82,-861.01 240.73,-866.45 246.11,-870.93"/>
<text text-anchor="middle" x="263.55" y="-882.8" font-family="Times New Roman,serif" font-size="14.00">interleave</text>
</g>
<!-- 9ad2455b069949daae8a2452be5485ee -->
<g id="node12" class="node">
<title>9ad2455b069949daae8a2452be5485ee</title>
<polygon fill="none" stroke="black" points="446.05,-861 389.05,-861 389.05,-825 446.05,-825 446.05,-861"/>
<text text-anchor="middle" x="417.55" y="-839.3" font-family="Times New Roman,serif" font-size="14.00">9ad245</text>
</g>
<!-- 9ae31cbb9be141e18c0702b29dda8dbc&#45;&gt;9ad2455b069949daae8a2452be5485ee -->
<g id="edge11" class="edge">
<title>9ae31cbb9be141e18c0702b29dda8dbc&#45;&gt;9ad2455b069949daae8a2452be5485ee</title>
<path fill="none" stroke="black" d="M264.83,-916.41C295.73,-901.55 345.39,-877.69 379.64,-861.22"/>
<polygon fill="black" stroke="black" points="381.37,-864.27 388.87,-856.79 378.34,-857.96 381.37,-864.27"/>
<text text-anchor="middle" x="343.24" y="-892.61" font-family="Times New Roman,serif" font-size="14.00">append</text>
</g>
<!-- 95efd5bc0b484f62bdcd4278786590d9 -->
<g id="node13" class="node">
<title>95efd5bc0b484f62bdcd4278786590d9</title>
<polygon fill="none" stroke="black" points="330.05,-666 275.05,-666 275.05,-630 330.05,-630 330.05,-666"/>
<text text-anchor="middle" x="302.55" y="-644.3" font-family="Times New Roman,serif" font-size="14.00">95efd5</text>
</g>
<!-- dd84218333e34f73a7daa9e519916181&#45;&gt;95efd5bc0b484f62bdcd4278786590d9 -->
<g id="edge12" class="edge">
<title>dd84218333e34f73a7daa9e519916181&#45;&gt;95efd5bc0b484f62bdcd4278786590d9</title>
<path fill="none" stroke="black" d="M271.42,-824.97C272.66,-804.28 275.36,-768.4 280.55,-738 284.12,-717.08 289.94,-693.81 294.7,-676.31"/>
<polygon fill="black" stroke="black" points="298.19,-676.81 297.49,-666.24 291.45,-674.94 298.19,-676.81"/>
<text text-anchor="middle" x="306.55" y="-752.3" font-family="Times New Roman,serif" font-size="14.00">interleave</text>
</g>
<!-- 2541054114554aba955661bb5cf0eb61 -->
<g id="node14" class="node">
<title>2541054114554aba955661bb5cf0eb61</title>
<polygon fill="none" stroke="black" points="398.05,-774 341.05,-774 341.05,-738 398.05,-738 398.05,-774"/>
<text text-anchor="middle" x="369.55" y="-752.3" font-family="Times New Roman,serif" font-size="14.00">254105</text>
</g>
<!-- 9ad2455b069949daae8a2452be5485ee&#45;&gt;2541054114554aba955661bb5cf0eb61 -->
<g id="edge13" class="edge">
<title>9ad2455b069949daae8a2452be5485ee&#45;&gt;2541054114554aba955661bb5cf0eb61</title>
<path fill="none" stroke="black" d="M407.6,-824.97C400.91,-812.84 391.96,-796.63 384.43,-782.97"/>
<polygon fill="black" stroke="black" points="387.38,-781.07 379.48,-774 381.25,-784.45 387.38,-781.07"/>
<text text-anchor="middle" x="370.02" y="-807.77" font-family="Times New Roman,serif" font-size="14.00">interleave</text>
</g>
<!-- ac9a69e3c5d14496956b237c6874378f -->
<g id="node15" class="node">
<title>ac9a69e3c5d14496956b237c6874378f</title>
<polygon fill="grey" stroke="black" points="481.55,-774 425.55,-774 425.55,-738 481.55,-738 481.55,-774"/>
<text text-anchor="middle" x="453.55" y="-752.3" font-family="Times New Roman,serif" font-size="14.00">ac9a69</text>
</g>
<!-- 9ad2455b069949daae8a2452be5485ee&#45;&gt;ac9a69e3c5d14496956b237c6874378f -->
<g id="edge14" class="edge">
<title>9ad2455b069949daae8a2452be5485ee&#45;&gt;ac9a69e3c5d14496956b237c6874378f</title>
<path fill="none" stroke="black" d="M424.84,-824.8C429.86,-812.93 436.64,-796.93 442.35,-783.45"/>
<polygon fill="black" stroke="black" points="445.6,-784.75 446.28,-774.18 439.15,-782.02 445.6,-784.75"/>
<text text-anchor="middle" x="463.55" y="-795.8" font-family="Times New Roman,serif" font-size="14.00">interleave</text>
</g>
<!-- bb04ee10a6894ad9b627dd1986559b3b -->
<g id="node16" class="node">
<title>bb04ee10a6894ad9b627dd1986559b3b</title>
<polygon fill="none" stroke="black" points="331.05,-558 274.05,-558 274.05,-522 331.05,-522 331.05,-558"/>
<text text-anchor="middle" x="302.55" y="-536.3" font-family="Times New Roman,serif" font-size="14.00">bb04ee</text>
</g>
<!-- 95efd5bc0b484f62bdcd4278786590d9&#45;&gt;bb04ee10a6894ad9b627dd1986559b3b -->
<g id="edge15" class="edge">
<title>95efd5bc0b484f62bdcd4278786590d9&#45;&gt;bb04ee10a6894ad9b627dd1986559b3b</title>
<path fill="none" stroke="black" d="M302.55,-629.97C302.55,-613.38 302.55,-587.88 302.55,-568.43"/>
<polygon fill="black" stroke="black" points="306.05,-568.34 302.55,-558.34 299.05,-568.34 306.05,-568.34"/>
<text text-anchor="middle" x="323.55" y="-590.3" font-family="Times New Roman,serif" font-size="14.00">append</text>
</g>
<!-- 2541054114554aba955661bb5cf0eb61&#45;&gt;95efd5bc0b484f62bdcd4278786590d9 -->
<g id="edge16" class="edge">
<title>2541054114554aba955661bb5cf0eb61&#45;&gt;95efd5bc0b484f62bdcd4278786590d9</title>
<path fill="none" stroke="black" d="M356.19,-737.84C352,-732.25 347.46,-725.95 343.55,-720 334.03,-705.5 324.28,-688.72 316.68,-675.11"/>
<polygon fill="black" stroke="black" points="319.69,-673.32 311.79,-666.26 313.56,-676.71 319.69,-673.32"/>
<text text-anchor="middle" x="369.55" y="-698.3" font-family="Times New Roman,serif" font-size="14.00">interleave</text>
</g>
<!-- ac9a69e3c5d14496956b237c6874378f&#45;&gt;bd9e97de11f545efa35bb381da0e9a51 -->
<g id="edge17" class="edge">
<title>ac9a69e3c5d14496956b237c6874378f&#45;&gt;bd9e97de11f545efa35bb381da0e9a51</title>
<path fill="none" stroke="black" d="M446.92,-737.88C436.16,-710.11 414.83,-655.06 402.01,-621.99"/>
<polygon fill="black" stroke="black" points="405.2,-620.54 398.33,-612.48 398.67,-623.07 405.2,-620.54"/>
<text text-anchor="middle" x="459.55" y="-698.3" font-family="Times New Roman,serif" font-size="14.00">append</text>
</g>
<!-- bb04ee10a6894ad9b627dd1986559b3b&#45;&gt;299c127fc4304fb79cdfafd2aa7ca2a2 -->
<g id="edge22" class="edge">
<title>bb04ee10a6894ad9b627dd1986559b3b&#45;&gt;299c127fc4304fb79cdfafd2aa7ca2a2</title>
<path fill="none" stroke="black" d="M296.4,-521.71C292.52,-511.77 287.02,-499.27 280.55,-489 278.41,-485.59 275.95,-482.17 273.38,-478.88"/>
<polygon fill="black" stroke="black" points="275.95,-476.5 266.89,-471.02 270.56,-480.96 275.95,-476.5"/>
<text text-anchor="middle" x="313.55" y="-492.8" font-family="Times New Roman,serif" font-size="14.00">interleave</text>
</g>
<!-- cccdf8f1fb444e47972ce2d2d0943210 -->
<g id="node17" class="node">
<title>cccdf8f1fb444e47972ce2d2d0943210</title>
<polygon fill="none" stroke="black" points="339.55,-948 283.55,-948 283.55,-912 339.55,-912 339.55,-948"/>
<text text-anchor="middle" x="311.55" y="-926.3" font-family="Times New Roman,serif" font-size="14.00">cccdf8</text>
</g>
<!-- cccdf8f1fb444e47972ce2d2d0943210&#45;&gt;c155142de1ed4b9a9cd1f3abc16568ef -->
<g id="edge18" class="edge">
<title>cccdf8f1fb444e47972ce2d2d0943210&#45;&gt;c155142de1ed4b9a9cd1f3abc16568ef</title>
<path fill="none" stroke="black" d="M283.45,-916.79C251.76,-901.88 200.05,-877.56 164.72,-860.95"/>
<polygon fill="black" stroke="black" points="165.75,-857.57 155.22,-856.48 162.78,-863.9 165.75,-857.57"/>
<text text-anchor="middle" x="181.58" y="-892.67" font-family="Times New Roman,serif" font-size="14.00">chop_and_join</text>
</g>
<!-- cccdf8f1fb444e47972ce2d2d0943210&#45;&gt;dd84218333e34f73a7daa9e519916181 -->
<g id="edge19" class="edge">
<title>cccdf8f1fb444e47972ce2d2d0943210&#45;&gt;dd84218333e34f73a7daa9e519916181</title>
<path fill="none" stroke="black" d="M304.37,-911.71C300.23,-902.01 294.81,-889.73 289.55,-879 288.17,-876.17 286.67,-873.25 285.15,-870.34"/>
<polygon fill="black" stroke="black" points="288.11,-868.46 280.31,-861.3 281.94,-871.77 288.11,-868.46"/>
<text text-anchor="middle" x="322.55" y="-882.8" font-family="Times New Roman,serif" font-size="14.00">interleave</text>
</g>
<!-- cccdf8f1fb444e47972ce2d2d0943210&#45;&gt;9ad2455b069949daae8a2452be5485ee -->
<g id="edge20" class="edge">
<title>cccdf8f1fb444e47972ce2d2d0943210&#45;&gt;9ad2455b069949daae8a2452be5485ee</title>
<path fill="none" stroke="black" d="M339.74,-929.51C367.61,-928.3 408.97,-921.57 429.55,-894 434.56,-887.29 434.29,-878.78 431.93,-870.69"/>
<polygon fill="black" stroke="black" points="435.12,-869.23 428.23,-861.18 428.59,-871.77 435.12,-869.23"/>
<text text-anchor="middle" x="454.55" y="-882.8" font-family="Times New Roman,serif" font-size="14.00">append</text>
</g>
<!-- 2b719b7bda3d4191898a35fa743b67fd -->
<g id="node18" class="node">
<title>2b719b7bda3d4191898a35fa743b67fd</title>
<polygon fill="none" stroke="black" points="256.05,-558 197.05,-558 197.05,-522 256.05,-522 256.05,-558"/>
<text text-anchor="middle" x="226.55" y="-536.3" font-family="Times New Roman,serif" font-size="14.00">2b719b</text>
</g>
<!-- 2b719b7bda3d4191898a35fa743b67fd&#45;&gt;299c127fc4304fb79cdfafd2aa7ca2a2 -->
<g id="edge21" class="edge">
<title>2b719b7bda3d4191898a35fa743b67fd&#45;&gt;299c127fc4304fb79cdfafd2aa7ca2a2</title>
<path fill="none" stroke="black" d="M225.08,-521.97C224.76,-512.12 225.26,-499.62 228.55,-489 229.48,-486.01 230.73,-483.03 232.16,-480.13"/>
<polygon fill="black" stroke="black" points="235.29,-481.7 237.21,-471.28 229.21,-478.23 235.29,-481.7"/>
<text text-anchor="middle" x="254.55" y="-492.8" font-family="Times New Roman,serif" font-size="14.00">interleave</text>
</g>
<!-- fff2ed2e463641a3a98f5052547613e9 -->
<g id="node19" class="node">
<title>fff2ed2e463641a3a98f5052547613e9</title>
<polygon fill="none" stroke="black" points="235.55,-666 181.55,-666 181.55,-630 235.55,-630 235.55,-666"/>
<text text-anchor="middle" x="208.55" y="-644.3" font-family="Times New Roman,serif" font-size="14.00">fff2ed</text>
</g>
<!-- fff2ed2e463641a3a98f5052547613e9&#45;&gt;2b719b7bda3d4191898a35fa743b67fd -->
<g id="edge23" class="edge">
<title>fff2ed2e463641a3a98f5052547613e9&#45;&gt;2b719b7bda3d4191898a35fa743b67fd</title>
<path fill="none" stroke="black" d="M211.45,-629.97C214.26,-613.38 218.59,-587.88 221.9,-568.43"/>
<polygon fill="black" stroke="black" points="225.39,-568.78 223.61,-558.34 218.49,-567.61 225.39,-568.78"/>
<text text-anchor="middle" x="242.55" y="-590.3" font-family="Times New Roman,serif" font-size="14.00">dropout</text>
</g>
<!-- 5929f1414e794a5ca02f0e63d6e3bf7b -->
<g id="node20" class="node">
<title>5929f1414e794a5ca02f0e63d6e3bf7b</title>
<polygon fill="none" stroke="black" points="234.05,-774 179.05,-774 179.05,-738 234.05,-738 234.05,-774"/>
<text text-anchor="middle" x="206.55" y="-752.3" font-family="Times New Roman,serif" font-size="14.00">5929f1</text>
</g>
<!-- 5929f1414e794a5ca02f0e63d6e3bf7b&#45;&gt;fff2ed2e463641a3a98f5052547613e9 -->
<g id="edge24" class="edge">
<title>5929f1414e794a5ca02f0e63d6e3bf7b&#45;&gt;fff2ed2e463641a3a98f5052547613e9</title>
<path fill="none" stroke="black" d="M206.87,-737.97C207.19,-721.38 207.67,-695.88 208.04,-676.43"/>
<polygon fill="black" stroke="black" points="211.54,-676.4 208.23,-666.34 204.54,-676.27 211.54,-676.4"/>
<text text-anchor="middle" x="223.05" y="-698.3" font-family="Times New Roman,serif" font-size="14.00">insert</text>
</g>
<!-- e9d28023f68245ad8ecc4187e235c2ea -->
<g id="node21" class="node">
<title>e9d28023f68245ad8ecc4187e235c2ea</title>
<polygon fill="grey" stroke="black" points="553.05,-861 496.05,-861 496.05,-825 553.05,-825 553.05,-861"/>
<text text-anchor="middle" x="524.55" y="-839.3" font-family="Times New Roman,serif" font-size="14.00">e9d280</text>
</g>
<!-- e9d28023f68245ad8ecc4187e235c2ea&#45;&gt;2541054114554aba955661bb5cf0eb61 -->
<g id="edge25" class="edge">
<title>e9d28023f68245ad8ecc4187e235c2ea&#45;&gt;2541054114554aba955661bb5cf0eb61</title>
<path fill="none" stroke="black" d="M495.76,-826.84C470.75,-812.8 434.35,-792.37 407.06,-777.06"/>
<polygon fill="black" stroke="black" points="408.62,-773.92 398.19,-772.07 405.19,-780.02 408.62,-773.92"/>
<text text-anchor="middle" x="425.41" y="-805.75" font-family="Times New Roman,serif" font-size="14.00">interleave</text>
</g>
<!-- e9d28023f68245ad8ecc4187e235c2ea&#45;&gt;ac9a69e3c5d14496956b237c6874378f -->
<g id="edge26" class="edge">
<title>e9d28023f68245ad8ecc4187e235c2ea&#45;&gt;ac9a69e3c5d14496956b237c6874378f</title>
<path fill="none" stroke="black" d="M515.66,-824.94C510,-814.86 502.14,-802.13 493.55,-792 490.36,-788.24 486.76,-784.52 483.06,-781"/>
<polygon fill="black" stroke="black" points="485.18,-778.2 475.42,-774.08 480.48,-783.39 485.18,-778.2"/>
<text text-anchor="middle" x="529.55" y="-795.8" font-family="Times New Roman,serif" font-size="14.00">interleave</text>
</g>
<!-- 4ccfcfc540f3419dabe2f5eeadf5d646 -->
<g id="node22" class="node">
<title>4ccfcfc540f3419dabe2f5eeadf5d646</title>
<polygon fill="grey" stroke="black" points="551.55,-948 497.55,-948 497.55,-912 551.55,-912 551.55,-948"/>
<text text-anchor="middle" x="524.55" y="-926.3" font-family="Times New Roman,serif" font-size="14.00">4ccfcf</text>
</g>
<!-- 4ccfcfc540f3419dabe2f5eeadf5d646&#45;&gt;e9d28023f68245ad8ecc4187e235c2ea -->
<g id="edge27" class="edge">
<title>4ccfcfc540f3419dabe2f5eeadf5d646&#45;&gt;e9d28023f68245ad8ecc4187e235c2ea</title>
<path fill="none" stroke="black" d="M524.55,-911.8C524.55,-900.16 524.55,-884.55 524.55,-871.24"/>
<polygon fill="black" stroke="black" points="528.05,-871.18 524.55,-861.18 521.05,-871.18 528.05,-871.18"/>
<text text-anchor="middle" x="539.55" y="-882.8" font-family="Times New Roman,serif" font-size="14.00">motif</text>
</g>
</g>
</svg>
