<?xml version="1.0" encoding="utf-8" standalone="no"?>
<!DOCTYPE svg PUBLIC "-//W3C//DTD SVG 1.1//EN"
  "http://www.w3.org/Graphics/SVG/1.1/DTD/svg11.dtd">
<svg xmlns:xlink="http://www.w3.org/1999/xlink" width="266.4pt" height="266.4pt" viewBox="0 0 266.4 266.4" xmlns="http://www.w3.org/2000/svg" version="1.1">
 <metadata>
  <rdf:RDF xmlns:dc="http://purl.org/dc/elements/1.1/" xmlns:cc="http://creativecommons.org/ns#" xmlns:rdf="http://www.w3.org/1999/02/22-rdf-syntax-ns#">
   <cc:Work>
    <dc:type rdf:resource="http://purl.org/dc/dcmitype/StillImage"/>
    <dc:date>2024-06-30T22:47:45.440453</dc:date>
    <dc:format>image/svg+xml</dc:format>
    <dc:creator>
     <cc:Agent>
      <dc:title>Matplotlib v3.8.4, https://matplotlib.org/</dc:title>
     </cc:Agent>
    </dc:creator>
   </cc:Work>
  </rdf:RDF>
 </metadata>
 <defs>
  <style type="text/css">*{stroke-linejoin: round; stroke-linecap: butt}</style>
 </defs>
 <g id="figure_1">
  <g id="patch_1">
   <path d="M 0 266.4 
L 266.4 266.4 
L 266.4 0 
L 0 0 
z
" style="fill: #ffffff"/>
  </g>
  <g id="axes_1">
   <g id="patch_2">
    <path d="M 232.697174 131.788083 
Q 187.936062 87.026972 144.360805 43.451714 
" clip-path="url(#pb447cefd0f)" style="fill: none; stroke: #000000; stroke-width: 1.5; stroke-linecap: round"/>
    <path d="M 146.906389 51.088467 
L 144.360805 43.451714 
L 151.997558 45.997298 
z
" clip-path="url(#pb447cefd0f)" style="stroke: #000000; stroke-width: 1.5; stroke-linecap: round"/>
   </g>
   <g id="patch_3">
    <path d="M 131.788083 33.702826 
Q 87.026972 78.463938 43.451714 122.039195 
" clip-path="url(#pb447cefd0f)" style="fill: none; stroke: #000000; stroke-width: 1.5; stroke-linecap: round"/>
    <path d="M 51.088467 119.493611 
L 43.451714 122.039195 
L 45.997298 114.402442 
z
" clip-path="url(#pb447cefd0f)" style="stroke: #000000; stroke-width: 1.5; stroke-linecap: round"/>
   </g>
   <g id="patch_4">
    <path d="M 33.702826 134.611917 
Q 78.463938 179.373028 122.039195 222.948286 
" clip-path="url(#pb447cefd0f)" style="fill: none; stroke: #000000; stroke-width: 1.5; stroke-linecap: round"/>
    <path d="M 119.493611 215.311533 
L 122.039195 222.948286 
L 114.402442 220.402702 
z
" clip-path="url(#pb447cefd0f)" style="stroke: #000000; stroke-width: 1.5; stroke-linecap: round"/>
   </g>
   <g id="patch_5">
    <path d="M 234.109091 145.309091 
C 237.320459 145.309091 240.400731 144.033201 242.671511 141.76242 
C 244.942292 139.49164 246.218182 136.411368 246.218182 133.2 
C 246.218182 129.988632 244.942292 126.90836 242.671511 124.63758 
C 240.400731 122.366799 237.320459 121.090909 234.109091 121.090909 
C 230.897722 121.090909 227.817451 122.366799 225.546671 124.63758 
C 223.27589 126.90836 222 129.988632 222 133.2 
C 222 136.411368 223.27589 139.49164 225.546671 141.76242 
C 227.817451 144.033201 230.897722 145.309091 234.109091 145.309091 
z
" clip-path="url(#pb447cefd0f)" style="fill: #0096ff; stroke: #000000; stroke-width: 1.5; stroke-linejoin: miter"/>
   </g>
   <g id="patch_6">
    <path d="M 133.2 44.4 
C 136.411368 44.4 139.49164 43.12411 141.76242 40.853329 
C 144.033201 38.582549 145.309091 35.502278 145.309091 32.290909 
C 145.309091 29.079541 144.033201 25.999269 141.76242 23.728489 
C 139.49164 21.457708 136.411368 20.181818 133.2 20.181818 
C 129.988632 20.181818 126.90836 21.457708 124.63758 23.728489 
C 122.366799 25.999269 121.090909 29.079541 121.090909 32.290909 
C 121.090909 35.502278 122.366799 38.582549 124.63758 40.853329 
C 126.90836 43.12411 129.988632 44.4 133.2 44.4 
z
" clip-path="url(#pb447cefd0f)" style="fill: #0096ff; stroke: #000000; stroke-width: 1.5; stroke-linejoin: miter"/>
   </g>
   <g id="patch_7">
    <path d="M 32.290909 145.309091 
C 35.502278 145.309091 38.582549 144.033201 40.853329 141.76242 
C 43.12411 139.49164 44.4 136.411368 44.4 133.2 
C 44.4 129.988632 43.12411 126.90836 40.853329 124.63758 
C 38.582549 122.366799 35.502278 121.090909 32.290909 121.090909 
C 29.079541 121.090909 25.999269 122.366799 23.728489 124.63758 
C 21.457708 126.90836 20.181818 129.988632 20.181818 133.2 
C 20.181818 136.411368 21.457708 139.49164 23.728489 141.76242 
C 25.999269 144.033201 29.079541 145.309091 32.290909 145.309091 
z
" clip-path="url(#pb447cefd0f)" style="fill: #0096ff; stroke: #000000; stroke-width: 1.5; stroke-linejoin: miter"/>
   </g>
   <g id="patch_8">
    <path d="M 133.2 246.218182 
C 136.411368 246.218182 139.49164 244.942292 141.76242 242.671511 
C 144.033201 240.400731 145.309091 237.320459 145.309091 234.109091 
C 145.309091 230.897722 144.033201 227.817451 141.76242 225.546671 
C 139.49164 223.27589 136.411368 222 133.2 222 
C 129.988632 222 126.90836 223.27589 124.63758 225.546671 
C 122.366799 227.817451 121.090909 230.897722 121.090909 234.109091 
C 121.090909 237.320459 122.366799 240.400731 124.63758 242.671511 
C 126.90836 244.942292 129.988632 246.218182 133.2 246.218182 
z
" clip-path="url(#pb447cefd0f)" style="fill: #0096ff; stroke: #000000; stroke-width: 1.5; stroke-linejoin: miter"/>
   </g>
   <g id="text_1">
    <!-- 0 -->
    <g transform="translate(229.337216 137.339062) scale(0.15 -0.15)">
     <defs>
      <path id="DejaVuSans-30" d="M 2034 4250 
Q 1547 4250 1301 3770 
Q 1056 3291 1056 2328 
Q 1056 1369 1301 889 
Q 1547 409 2034 409 
Q 2525 409 2770 889 
Q 3016 1369 3016 2328 
Q 3016 3291 2770 3770 
Q 2525 4250 2034 4250 
z
M 2034 4750 
Q 2819 4750 3233 4129 
Q 3647 3509 3647 2328 
Q 3647 1150 3233 529 
Q 2819 -91 2034 -91 
Q 1250 -91 836 529 
Q 422 1150 422 2328 
Q 422 3509 836 4129 
Q 1250 4750 2034 4750 
z
" transform="scale(0.015625)"/>
     </defs>
     <use xlink:href="#DejaVuSans-30"/>
    </g>
   </g>
   <g id="text_2">
    <!-- 1 -->
    <g transform="translate(128.428125 36.429972) scale(0.15 -0.15)">
     <defs>
      <path id="DejaVuSans-31" d="M 794 531 
L 1825 531 
L 1825 4091 
L 703 3866 
L 703 4441 
L 1819 4666 
L 2450 4666 
L 2450 531 
L 3481 531 
L 3481 0 
L 794 0 
L 794 531 
z
" transform="scale(0.015625)"/>
     </defs>
     <use xlink:href="#DejaVuSans-31"/>
    </g>
   </g>
   <g id="text_3">
    <!-- 2 -->
    <g transform="translate(27.519034 137.339062) scale(0.15 -0.15)">
     <defs>
      <path id="DejaVuSans-32" d="M 1228 531 
L 3431 531 
L 3431 0 
L 469 0 
L 469 531 
Q 828 903 1448 1529 
Q 2069 2156 2228 2338 
Q 2531 2678 2651 2914 
Q 2772 3150 2772 3378 
Q 2772 3750 2511 3984 
Q 2250 4219 1831 4219 
Q 1534 4219 1204 4116 
Q 875 4013 500 3803 
L 500 4441 
Q 881 4594 1212 4672 
Q 1544 4750 1819 4750 
Q 2544 4750 2975 4387 
Q 3406 4025 3406 3419 
Q 3406 3131 3298 2873 
Q 3191 2616 2906 2266 
Q 2828 2175 2409 1742 
Q 1991 1309 1228 531 
z
" transform="scale(0.015625)"/>
     </defs>
     <use xlink:href="#DejaVuSans-32"/>
    </g>
   </g>
   <g id="text_4">
    <!-- 3 -->
    <g transform="translate(128.428125 238.248153) scale(0.15 -0.15)">
     <defs>
      <path id="DejaVuSans-33" d="M 2597 2516 
Q 3050 2419 3304 2112 
Q 3559 1806 3559 1356 
Q 3559 666 3084 287 
Q 2609 -91 1734 -91 
Q 1441 -91 1130 -33 
Q 819 25 488 141 
L 488 750 
Q 750 597 1062 519 
Q 1375 441 1716 441 
Q 2309 441 2620 675 
Q 2931 909 2931 1356 
Q 2931 1769 2642 2001 
Q 2353 2234 1838 2234 
L 1294 2234 
L 1294 2753 
L 1863 2753 
Q 2328 2753 2575 2939 
Q 2822 3125 2822 3475 
Q 2822 3834 2567 4026 
Q 2313 4219 1838 4219 
Q 1578 4219 1281 4162 
Q 984 4106 628 3988 
L 628 4550 
Q 988 4650 1302 4700 
Q 1616 4750 1894 4750 
Q 2613 4750 3031 4423 
Q 3450 4097 3450 3541 
Q 3450 3153 3228 2886 
Q 3006 2619 2597 2516 
z
" transform="scale(0.015625)"/>
     </defs>
     <use xlink:href="#DejaVuSans-33"/>
    </g>
   </g>
  </g>
 </g>
 <defs>
  <clipPath id="pb447cefd0f">
   <rect x="0" y="0" width="266.4" height="266.4"/>
  </clipPath>
 </defs>
</svg>
