<?xml version="1.0" encoding="utf-8" standalone="no"?>
<!DOCTYPE svg PUBLIC "-//W3C//DTD SVG 1.1//EN"
  "http://www.w3.org/Graphics/SVG/1.1/DTD/svg11.dtd">
<svg xmlns:xlink="http://www.w3.org/1999/xlink" width="266.4pt" height="266.4pt" viewBox="0 0 266.4 266.4" xmlns="http://www.w3.org/2000/svg" version="1.1">
 <metadata>
  <rdf:RDF xmlns:dc="http://purl.org/dc/elements/1.1/" xmlns:cc="http://creativecommons.org/ns#" xmlns:rdf="http://www.w3.org/1999/02/22-rdf-syntax-ns#">
   <cc:Work>
    <dc:type rdf:resource="http://purl.org/dc/dcmitype/StillImage"/>
    <dc:date>2024-06-30T17:21:33.127534</dc:date>
    <dc:format>image/svg+xml</dc:format>
    <dc:creator>
     <cc:Agent>
      <dc:title>Matplotlib v3.8.4, https://matplotlib.org/</dc:title>
     </cc:Agent>
    </dc:creator>
   </cc:Work>
  </rdf:RDF>
 </metadata>
 <defs>
  <style type="text/css">*{stroke-linejoin: round; stroke-linecap: butt}</style>
 </defs>
 <g id="figure_1">
  <g id="patch_1">
   <path d="M 0 266.4 
L 266.4 266.4 
L 266.4 0 
L 0 0 
z
" style="fill: #ffffff"/>
  </g>
  <g id="axes_1">
   <g id="patch_2">
    <path d="M 232.934027 131.582664 
Q 202.804852 90.113411 173.661422 50.000922 
" clip-path="url(#p38040bdf4d)" style="fill: none; stroke: #000000; stroke-width: 1.5; stroke-linecap: round"/>
    <path d="M 174.981015 57.941871 
L 173.661422 50.000922 
L 180.805937 53.709817 
z
" clip-path="url(#p38040bdf4d)" style="stroke: #000000; stroke-width: 1.5; stroke-linecap: round"/>
   </g>
   <g id="patch_3">
    <path d="M 162.481331 37.847519 
Q 113.731301 53.687364 66.576242 69.008972 
" clip-path="url(#p38040bdf4d)" style="fill: none; stroke: #000000; stroke-width: 1.5; stroke-linecap: round"/>
    <path d="M 74.53631 70.207853 
L 66.576242 69.008972 
L 72.311387 63.360246 
z
" clip-path="url(#p38040bdf4d)" style="stroke: #000000; stroke-width: 1.5; stroke-linecap: round"/>
   </g>
   <g id="patch_4">
    <path d="M 51.562831 75.886262 
Q 51.562831 127.145077 51.562831 176.726841 
" clip-path="url(#p38040bdf4d)" style="fill: none; stroke: #000000; stroke-width: 1.5; stroke-linecap: round"/>
    <path d="M 55.162831 169.526841 
L 51.562831 176.726841 
L 47.962831 169.526841 
z
" clip-path="url(#p38040bdf4d)" style="stroke: #000000; stroke-width: 1.5; stroke-linecap: round"/>
   </g>
   <g id="patch_5">
    <path d="M 53.464124 193.130643 
Q 102.214153 208.970488 149.369213 224.292095 
" clip-path="url(#p38040bdf4d)" style="fill: none; stroke: #000000; stroke-width: 1.5; stroke-linecap: round"/>
    <path d="M 143.634067 218.64337 
L 149.369213 224.292095 
L 141.409145 225.490977 
z
" clip-path="url(#p38040bdf4d)" style="stroke: #000000; stroke-width: 1.5; stroke-linecap: round"/>
   </g>
   <g id="patch_6">
    <path d="M 234.109091 145.309091 
C 237.320459 145.309091 240.400731 144.033201 242.671511 141.76242 
C 244.942292 139.49164 246.218182 136.411368 246.218182 133.2 
C 246.218182 129.988632 244.942292 126.90836 242.671511 124.63758 
C 240.400731 122.366799 237.320459 121.090909 234.109091 121.090909 
C 230.897722 121.090909 227.817451 122.366799 225.546671 124.63758 
C 223.27589 126.90836 222 129.988632 222 133.2 
C 222 136.411368 223.27589 139.49164 225.546671 141.76242 
C 227.817451 144.033201 230.897722 145.309091 234.109091 145.309091 
z
" clip-path="url(#p38040bdf4d)" style="fill: #0096ff; stroke: #000000; stroke-width: 1.5; stroke-linejoin: miter"/>
   </g>
   <g id="patch_7">
    <path d="M 164.382624 49.338842 
C 167.593992 49.338842 170.674264 48.062952 172.945044 45.792172 
C 175.215825 43.521391 176.491715 40.44112 176.491715 37.229752 
C 176.491715 34.018383 175.215825 30.938112 172.945044 28.667331 
C 170.674264 26.396551 167.593992 25.120661 164.382624 25.120661 
C 161.171256 25.120661 158.090984 26.396551 155.820204 28.667331 
C 153.549423 30.938112 152.273533 34.018383 152.273533 37.229752 
C 152.273533 40.44112 153.549423 43.521391 155.820204 45.792172 
C 158.090984 48.062952 161.171256 49.338842 164.382624 49.338842 
z
" clip-path="url(#p38040bdf4d)" style="fill: #0096ff; stroke: #000000; stroke-width: 1.5; stroke-linejoin: miter"/>
   </g>
   <g id="patch_8">
    <path d="M 51.562831 85.996215 
C 54.774199 85.996215 57.85447 84.720325 60.125251 82.449545 
C 62.396031 80.178764 63.671921 77.098493 63.671921 73.887125 
C 63.671921 70.675756 62.396031 67.595485 60.125251 65.324704 
C 57.85447 63.053924 54.774199 61.778034 51.562831 61.778034 
C 48.351462 61.778034 45.271191 63.053924 43.00041 65.324704 
C 40.72963 67.595485 39.45374 70.675756 39.45374 73.887125 
C 39.45374 77.098493 40.72963 80.178764 43.00041 82.449545 
C 45.271191 84.720325 48.351462 85.996215 51.562831 85.996215 
z
" clip-path="url(#p38040bdf4d)" style="fill: #0096ff; stroke: #000000; stroke-width: 1.5; stroke-linejoin: miter"/>
   </g>
   <g id="patch_9">
    <path d="M 51.562831 204.621966 
C 54.774199 204.621966 57.85447 203.346076 60.125251 201.075296 
C 62.396031 198.804515 63.671921 195.724244 63.671921 192.512875 
C 63.671921 189.301507 62.396031 186.221236 60.125251 183.950455 
C 57.85447 181.679675 54.774199 180.403785 51.562831 180.403785 
C 48.351462 180.403785 45.271191 181.679675 43.00041 183.950455 
C 40.72963 186.221236 39.45374 189.301507 39.45374 192.512875 
C 39.45374 195.724244 40.72963 198.804515 43.00041 201.075296 
C 45.271191 203.346076 48.351462 204.621966 51.562831 204.621966 
z
" clip-path="url(#p38040bdf4d)" style="fill: #0096ff; stroke: #000000; stroke-width: 1.5; stroke-linejoin: miter"/>
   </g>
   <g id="patch_10">
    <path d="M 164.382624 241.279339 
C 167.593992 241.279339 170.674264 240.003449 172.945044 237.732669 
C 175.215825 235.461888 176.491715 232.381617 176.491715 229.170248 
C 176.491715 225.95888 175.215825 222.878609 172.945044 220.607828 
C 170.674264 218.337048 167.593992 217.061158 164.382624 217.061158 
C 161.171256 217.061158 158.090984 218.337048 155.820204 220.607828 
C 153.549423 222.878609 152.273533 225.95888 152.273533 229.170248 
C 152.273533 232.381617 153.549423 235.461888 155.820204 237.732669 
C 158.090984 240.003449 161.171256 241.279339 164.382624 241.279339 
z
" clip-path="url(#p38040bdf4d)" style="fill: #0096ff; stroke: #000000; stroke-width: 1.5; stroke-linejoin: miter"/>
   </g>
   <g id="text_1">
    <!-- 0 -->
    <g transform="translate(229.337216 137.339062) scale(0.15 -0.15)">
     <defs>
      <path id="DejaVuSans-30" d="M 2034 4250 
Q 1547 4250 1301 3770 
Q 1056 3291 1056 2328 
Q 1056 1369 1301 889 
Q 1547 409 2034 409 
Q 2525 409 2770 889 
Q 3016 1369 3016 2328 
Q 3016 3291 2770 3770 
Q 2525 4250 2034 4250 
z
M 2034 4750 
Q 2819 4750 3233 4129 
Q 3647 3509 3647 2328 
Q 3647 1150 3233 529 
Q 2819 -91 2034 -91 
Q 1250 -91 836 529 
Q 422 1150 422 2328 
Q 422 3509 836 4129 
Q 1250 4750 2034 4750 
z
" transform="scale(0.015625)"/>
     </defs>
     <use xlink:href="#DejaVuSans-30"/>
    </g>
   </g>
   <g id="text_2">
    <!-- 1 -->
    <g transform="translate(159.610749 41.368814) scale(0.15 -0.15)">
     <defs>
      <path id="DejaVuSans-31" d="M 794 531 
L 1825 531 
L 1825 4091 
L 703 3866 
L 703 4441 
L 1819 4666 
L 2450 4666 
L 2450 531 
L 3481 531 
L 3481 0 
L 794 0 
L 794 531 
z
" transform="scale(0.015625)"/>
     </defs>
     <use xlink:href="#DejaVuSans-31"/>
    </g>
   </g>
   <g id="text_3">
    <!-- 2 -->
    <g transform="translate(46.790956 78.026187) scale(0.15 -0.15)">
     <defs>
      <path id="DejaVuSans-32" d="M 1228 531 
L 3431 531 
L 3431 0 
L 469 0 
L 469 531 
Q 828 903 1448 1529 
Q 2069 2156 2228 2338 
Q 2531 2678 2651 2914 
Q 2772 3150 2772 3378 
Q 2772 3750 2511 3984 
Q 2250 4219 1831 4219 
Q 1534 4219 1204 4116 
Q 875 4013 500 3803 
L 500 4441 
Q 881 4594 1212 4672 
Q 1544 4750 1819 4750 
Q 2544 4750 2975 4387 
Q 3406 4025 3406 3419 
Q 3406 3131 3298 2873 
Q 3191 2616 2906 2266 
Q 2828 2175 2409 1742 
Q 1991 1309 1228 531 
z
" transform="scale(0.015625)"/>
     </defs>
     <use xlink:href="#DejaVuSans-32"/>
    </g>
   </g>
   <g id="text_4">
    <!-- 3 -->
    <g transform="translate(46.790956 196.651938) scale(0.15 -0.15)">
     <defs>
      <path id="DejaVuSans-33" d="M 2597 2516 
Q 3050 2419 3304 2112 
Q 3559 1806 3559 1356 
Q 3559 666 3084 287 
Q 2609 -91 1734 -91 
Q 1441 -91 1130 -33 
Q 819 25 488 141 
L 488 750 
Q 750 597 1062 519 
Q 1375 441 1716 441 
Q 2309 441 2620 675 
Q 2931 909 2931 1356 
Q 2931 1769 2642 2001 
Q 2353 2234 1838 2234 
L 1294 2234 
L 1294 2753 
L 1863 2753 
Q 2328 2753 2575 2939 
Q 2822 3125 2822 3475 
Q 2822 3834 2567 4026 
Q 2313 4219 1838 4219 
Q 1578 4219 1281 4162 
Q 984 4106 628 3988 
L 628 4550 
Q 988 4650 1302 4700 
Q 1616 4750 1894 4750 
Q 2613 4750 3031 4423 
Q 3450 4097 3450 3541 
Q 3450 3153 3228 2886 
Q 3006 2619 2597 2516 
z
" transform="scale(0.015625)"/>
     </defs>
     <use xlink:href="#DejaVuSans-33"/>
    </g>
   </g>
   <g id="text_5">
    <!-- 4 -->
    <g transform="translate(159.610749 233.309311) scale(0.15 -0.15)">
     <defs>
      <path id="DejaVuSans-34" d="M 2419 4116 
L 825 1625 
L 2419 1625 
L 2419 4116 
z
M 2253 4666 
L 3047 4666 
L 3047 1625 
L 3713 1625 
L 3713 1100 
L 3047 1100 
L 3047 0 
L 2419 0 
L 2419 1100 
L 313 1100 
L 313 1709 
L 2253 4666 
z
" transform="scale(0.015625)"/>
     </defs>
     <use xlink:href="#DejaVuSans-34"/>
    </g>
   </g>
  </g>
 </g>
 <defs>
  <clipPath id="p38040bdf4d">
   <rect x="0" y="0" width="266.4" height="266.4"/>
  </clipPath>
 </defs>
</svg>
